<?xml version="1.0" encoding="UTF-8"?>
<svg id="Layer_1" data-name="Layer 1" xmlns="http://www.w3.org/2000/svg" viewBox="0 0 21.5 21.5">
  <defs>
    <style>
      .cls-1 {
        fill: none;
        stroke: #fff;
        stroke-linecap: round;
        stroke-linejoin: round;
        stroke-width: 2px;
      }
    </style>
  </defs>
  <path class="cls-1" d="M3,15.5c-1.5,1.26-2,5-2,5,0,0,3.74-.5,5-2,.71-.84.7-2.13-.09-2.91-.8-.77-2.06-.81-2.91-.09Z"/>
  <path class="cls-1" d="M10.5,14l-3-3c.53-1.38,1.2-2.7,2-3.95,2.37-3.79,6.53-6.08,11-6.05,0,2.72-.78,7.5-6,11-1.26.8-2.6,1.47-4,2Z"/>
  <path class="cls-1" d="M7.5,11H2.5s.55-3.03,2-4c1.62-1.08,5,0,5,0"/>
  <path class="cls-1" d="M10.5,14v5s3.03-.55,4-2c1.08-1.62,0-5,0-5"/>
</svg>